<?xml version="1.0" encoding="UTF-8" standalone="no" ?>
<!DOCTYPE svg PUBLIC "-//W3C//DTD SVG 1.1//EN" "http://www.w3.org/Graphics/SVG/1.1/DTD/svg11.dtd">
<svg xmlns="http://www.w3.org/2000/svg" xmlns:xlink="http://www.w3.org/1999/xlink" version="1.1" width="470" height="470" viewBox="0 0 470 470" xml:space="preserve">
<desc>Created with Fabric.js 3.6.3</desc>
<defs>
</defs>
<rect x="0" y="0" width="100%" height="100%" fill="rgba(0, 0, 0, 0)"></rect>
<g transform="matrix(0.31 0 0 0.31 235.5 234.5)"  >
<path style="stroke: none; stroke-width: 1; stroke-dasharray: none; stroke-linecap: butt; stroke-dashoffset: 0; stroke-linejoin: miter; stroke-miterlimit: 4; fill: rgb(255,255,255); fill-rule: nonzero; opacity: 1;"  transform=" translate(-896, -896)" d="M 522 1352 q -8 9 -20 -3 q -13 -11 -4 -19 q 8 -9 20 3 q 12 11 4 19 z m -42 -61 q 9 12 0 19 q -8 6 -17 -7 t 0 -18 q 9 -7 17 6 z m -61 -60 q -5 7 -13 2 q -10 -5 -7 -12 q 3 -5 13 -2 q 10 5 7 12 z m 31 34 q -6 7 -16 -3 q -9 -11 -2 -16 q 6 -6 16 3 q 9 11 2 16 z m 129 112 q -4 12 -19 6 q -17 -4 -13 -15 t 19 -7 q 16 5 13 16 z m 63 5 q 0 11 -16 11 q -17 2 -17 -11 q 0 -11 16 -11 q 17 -2 17 11 z m 58 -10 q 2 10 -14 14 t -18 -8 t 14 -15 q 16 -2 18 9 z m 964 -956 v 960 q 0 119 -84.5 203.5 T 1376 1664 h -224 q -16 0 -24.5 -1 t -19.5 -5 t -16 -14.5 t -5 -27.5 v -239 q 0 -97 -52 -142 q 57 -6 102.5 -18 t 94 -39 t 81 -66.5 t 53 -105 T 1386 856 q 0 -121 -79 -206 q 37 -91 -8 -204 q -28 -9 -81 11 t -92 44 l -38 24 q -93 -26 -192 -26 t -192 26 q -16 -11 -42.5 -27 T 578 459.5 T 492 446 q -44 113 -7 204 q -79 85 -79 206 q 0 85 20.5 150 t 52.5 105 t 80.5 67 t 94 39 t 102.5 18 q -40 36 -49 103 q -21 10 -45 15 t -57 5 t -65.5 -21.5 T 484 1274 q -19 -32 -48.5 -52 t -49.5 -24 l -20 -3 q -21 0 -29 4.5 t -5 11.5 t 9 14 t 13 12 l 7 5 q 22 10 43.5 38 t 31.5 51 l 10 23 q 13 38 44 61.5 t 67 30 t 69.5 7 t 55.5 -3.5 l 23 -4 q 0 38 0.5 103 t 0.5 68 q 0 22 -11 33.5 t -22 13 t -33 1.5 H 416 q -119 0 -203.5 -84.5 T 128 1376 V 416 q 0 -119 84.5 -203.5 T 416 128 h 960 q 119 0 203.5 84.5 T 1664 416 z" stroke-linecap="round" />
</g>
</svg>