<?xml version="1.0" encoding="UTF-8" standalone="no" ?>
<!DOCTYPE svg PUBLIC "-//W3C//DTD SVG 1.1//EN" "http://www.w3.org/Graphics/SVG/1.1/DTD/svg11.dtd">
<svg xmlns="http://www.w3.org/2000/svg" xmlns:xlink="http://www.w3.org/1999/xlink" version="1.1" width="470" height="470" viewBox="0 0 470 470" xml:space="preserve">
<desc>Created with Fabric.js 3.6.3</desc>
<defs>
</defs>
<rect x="0" y="0" width="100%" height="100%" fill="rgba(0, 0, 0, 0)"></rect>
<g transform="matrix(23.47 0 0 23.47 234.03 235.44)"  >
<path style="stroke: none; stroke-width: 1; stroke-dasharray: none; stroke-linecap: butt; stroke-dashoffset: 0; stroke-linejoin: miter; stroke-miterlimit: 4; fill: rgb(255,255,255); fill-rule: nonzero; opacity: 1;"  transform=" translate(-12, -12)" d="M 20.47 2 H 3.53 A 1.45 1.45 0 0 0 2.06 3.43 V 20.57 A 1.45 1.45 0 0 0 3.53 22 H 20.47 a 1.45 1.45 0 0 0 1.47 -1.43 V 3.43 A 1.45 1.45 0 0 0 20.47 2 Z M 8.09 18.74 h -3 v -9 h 3 Z M 6.59 8.48 h 0 a 1.56 1.56 0 1 1 0 -3.12 a 1.57 1.57 0 1 1 0 3.12 Z M 18.91 18.74 h -3 V 13.91 c 0 -1.21 -0.43 -2 -1.52 -2 A 1.65 1.65 0 0 0 12.85 13 a 2 2 0 0 0 -0.1 0.73 v 5 h -3 s 0 -8.18 0 -9 h 3 V 11 A 3 3 0 0 1 15.46 9.5 c 2 0 3.45 1.29 3.45 4.06 Z" stroke-linecap="round" />
</g>
</svg>